<?xml version="1.0" standalone="no"?>
<!DOCTYPE svg PUBLIC "-//W3C//DTD SVG 20010904//EN"
 "http://www.w3.org/TR/2001/REC-SVG-20010904/DTD/svg10.dtd">
<svg version="1.0" xmlns="http://www.w3.org/2000/svg"
 width="240.000000pt" height="240.000000pt" viewBox="0 0 240.000000 240.000000"
 preserveAspectRatio="xMidYMid meet">
<metadata>
Created by potrace 1.11, written by Peter Selinger 2001-2013
</metadata>
<g transform="translate(0.000000,240.000000) scale(0.100000,-0.100000)"
fill="#000000" stroke="none">
<path d="M998 2359 c-9 -5 -29 -11 -45 -12 -102 -13 -302 -99 -421 -183 -98
-68 -241 -217 -307 -317 -89 -137 -154 -305 -181 -468 -8 -46 -12 -302 -5
-314 3 -5 6 -19 7 -30 4 -49 42 -198 62 -244 9 -20 16 -38 17 -41 2 -9 55
-115 73 -146 70 -122 189 -252 317 -345 66 -48 265 -156 265 -143 0 3 6 2 13
-4 19 -16 194 -60 273 -68 236 -25 439 10 653 114 52 24 100 49 105 53 6 5 40
30 76 56 189 139 348 361 416 580 27 89 29 97 40 170 3 26 8 57 10 67 9 50 3
261 -9 312 -3 12 -8 37 -11 55 -8 55 -45 165 -78 237 -85 183 -218 346 -376
461 -71 52 -262 157 -262 145 0 -4 -6 -2 -12 3 -12 9 -44 19 -73 24 -5 0 -17
5 -25 9 -9 5 -35 11 -59 15 -24 3 -53 10 -65 15 -30 11 -378 10 -398 -1z m313
-173 c317 -33 603 -227 762 -516 35 -65 85 -197 92 -249 2 -14 7 -37 11 -51
10 -38 13 -277 3 -318 -4 -21 -10 -49 -13 -64 -9 -53 -59 -184 -94 -248 -128
-235 -355 -417 -606 -487 -49 -13 -67 -17 -146 -28 -55 -8 -257 -4 -280 5 -3
1 -9 3 -15 4 -5 1 -23 5 -40 9 -16 4 -39 9 -50 11 -76 15 -293 127 -353 182
-123 114 -188 192 -241 287 -24 42 -71 155 -80 189 -1 4 -7 22 -12 40 -53 176
-42 406 28 593 100 266 296 468 556 574 74 30 99 39 139 47 13 2 34 6 48 9 14
3 50 8 80 11 30 4 56 7 57 8 4 3 96 -2 154 -8z"/>
<path d="M1146 2073 c-1 -1 -27 -5 -57 -9 -29 -4 -64 -10 -76 -15 -13 -5 -23
-6 -23 -4 0 19 -240 -94 -303 -143 -48 -38 -164 -160 -195 -206 -57 -84 -109
-200 -127 -284 -3 -12 -8 -32 -11 -44 -13 -49 -12 -245 1 -318 34 -186 131
-363 263 -480 84 -74 103 -88 192 -134 128 -66 254 -98 385 -97 66 0 97 61 57
111 -14 17 -31 23 -73 26 -91 6 -186 25 -214 42 -5 4 -16 7 -23 8 -19 3 -111
52 -157 84 -154 106 -275 307 -302 500 -4 32 -7 169 -3 180 1 3 3 14 5 25 2
11 7 35 10 54 4 18 11 45 17 60 6 14 12 32 14 39 5 24 77 148 109 188 50 61
103 112 154 146 49 34 155 88 183 93 10 2 23 7 28 10 10 6 29 11 90 22 42 7
195 7 230 0 63 -13 156 -40 166 -48 6 -5 14 -6 17 -2 4 3 7 1 7 -5 0 -7 6 -12
13 -12 21 0 133 -75 183 -123 57 -53 122 -143 163 -224 17 -35 31 -65 31 -68
2 -50 37 -105 68 -105 36 0 62 13 69 34 12 38 12 47 -9 109 -101 310 -390 546
-713 583 -60 6 -165 11 -169 7z"/>
<path d="M1138 1825 c-2 -2 -21 -6 -42 -9 -62 -10 -90 -18 -105 -30 -8 -6 -15
-9 -15 -7 -5 18 -191 -107 -229 -156 -10 -13 -25 -29 -32 -37 -30 -29 -85
-144 -105 -219 -60 -219 -3 -433 160 -598 59 -61 93 -85 160 -117 47 -23 96
-43 110 -46 14 -2 36 -7 50 -10 14 -4 49 -8 79 -10 46 -3 58 0 78 20 12 13 23
34 23 47 0 27 -34 67 -58 68 -197 6 -354 104 -438 274 -38 77 -45 108 -47 205
-2 90 8 134 48 216 60 122 184 225 316 259 60 16 189 13 249 -5 25 -7 48 -14
51 -14 9 -1 123 -75 144 -93 54 -48 122 -160 139 -230 16 -60 66 -81 115 -47
20 15 23 23 19 64 -12 118 -123 280 -255 371 -47 32 -153 83 -153 73 0 -4 -6
-2 -12 3 -7 6 -31 14 -53 18 -39 8 -192 15 -197 10z"/>
<path d="M1184 1578 c-3 -4 -9 -6 -14 -3 -15 9 -130 -32 -168 -61 -54 -41 -99
-93 -123 -144 -28 -58 -33 -89 -32 -177 3 -186 160 -343 350 -349 75 -2 135
11 194 41 42 22 129 104 129 121 0 8 3 14 8 14 11 0 41 75 48 118 3 20 7 46 9
58 5 34 -15 123 -40 178 -49 106 -164 187 -288 204 -37 5 -70 5 -73 0z m106
-195 c94 -39 138 -167 89 -258 -104 -194 -401 -79 -347 134 11 43 60 101 105
124 31 15 115 15 153 0z"/>
</g>
</svg>
